inDegrees=no
num_controls=7
num_derivatives=13
num_iterations=113
num_multipliers=7
num_parameters=0
num_slacks=7
num_states=26
objective=0.479068
objective_accelerations=0.010910
objective_balance=0.000382
objective_effort=0.007679
objective_height=0.451125
objective_ligament=0.008973
solver_duration=1521.646650
status=Solve_Succeeded
success=true
DataType=double
version=3
OpenSimVersion=4.5
endheader
time	/jointset/ground_pelvis/pelvis_tilt/value	/jointset/ground_pelvis/pelvis_tx/value	/jointset/ground_pelvis/pelvis_ty/value	/jointset/hip_l/hip_flexion_l/value	/jointset/hip_l/hip_adduction_l/value	/jointset/hip_l/hip_rotation_l/value	/jointset/back/lumbar_extension/value	/jointset/patellofemoral_l/patellar_flexion_l/value	/jointset/knee_l/knee_flexion_l/value	/jointset/knee_l/knee_adduction_l/value	/jointset/knee_l/knee_rotation_l/value	/jointset/ankle_l/ankle_angle_l/value	/jointset/subtalar_l/subtalar_angle_l/value	/jointset/ground_pelvis/pelvis_tilt/speed	/jointset/ground_pelvis/pelvis_tx/speed	/jointset/ground_pelvis/pelvis_ty/speed	/jointset/hip_l/hip_flexion_l/speed	/jointset/hip_l/hip_adduction_l/speed	/jointset/hip_l/hip_rotation_l/speed	/jointset/back/lumbar_extension/speed	/jointset/patellofemoral_l/patellar_flexion_l/speed	/jointset/knee_l/knee_flexion_l/speed	/jointset/knee_l/knee_adduction_l/speed	/jointset/knee_l/knee_rotation_l/speed	/jointset/ankle_l/ankle_angle_l/speed	/jointset/subtalar_l/subtalar_angle_l/speed	/forceset/tau_hip_flexion_l	/forceset/tau_hip_adduction_l	/forceset/tau_hip_rotation_l	/forceset/tau_knee_flexion_l	/forceset/tau_ankle_angle_l	/forceset/tau_subtalar_angle_l	/forceset/tau_lumbar_extension	lambda_cid13_p0	lambda_cid13_p1	lambda_cid13_p2	lambda_cid13_p3	lambda_cid13_p4	lambda_cid13_p5	lambda_cid14_p0	/jointset/ground_pelvis/pelvis_tilt/accel	/jointset/ground_pelvis/pelvis_tx/accel	/jointset/ground_pelvis/pelvis_ty/accel	/jointset/hip_l/hip_flexion_l/accel	/jointset/hip_l/hip_adduction_l/accel	/jointset/hip_l/hip_rotation_l/accel	/jointset/back/lumbar_extension/accel	/jointset/patellofemoral_l/patellar_flexion_l/accel	/jointset/knee_l/knee_flexion_l/accel	/jointset/knee_l/knee_adduction_l/accel	/jointset/knee_l/knee_rotation_l/accel	/jointset/ankle_l/ankle_angle_l/accel	/jointset/subtalar_l/subtalar_angle_l/accel	gamma_cid13_p0	gamma_cid13_p1	gamma_cid13_p2	gamma_cid13_p3	gamma_cid13_p4	gamma_cid13_p5	gamma_cid14_p0
0.5	0.1571825981543767	0.1417460694743183	0.882933021022233	0.1440497645543652	-0.3585942223054966	-0.1667230907933814	-0.3643345624859304	0.5116668564949554	0.5116668564949308	-0.06903661280388121	-0.1745280436403262	0.3062866565963652	0.1695606846665636	0.2230252599555458	0.09071229071616328	-0.08742912959306938	0.06656948997515602	-0.05359211611105847	0.1973645000550278	-0.3446991793579312	0.7597169694760831	0.7597169694760623	0.08086200213654302	-5.555987080182768e-06	0.5268679719834101	0.1550884409168216	0.04553234928594745	0.009761329891079265	0.003392624547404259	-0.1969132113271038	-0.02783297086687839	-0.00142353847090523	0.02496726541758181	-35.83522804883929	5.580538405792796	0.3281394865681292	6.833505341033095	-461.6655780571359	-72.56732133849259	-21.89879130617149	-0.4484723817400463	-0.1278089058370005	-0.03729679216185502	0.08320936532979463	0.02781893061467437	-0.3263985123413298	0.5752919018103777	-0.9477458184375789	-0.9477458184375767	-0.1889247051415541	0.01343722916127186	-0.6701945068942886	-0.09662306726127624	1.464356531370824e-08	-3.203981222848728e-07	1.104917173322285e-07	-3.844301348367692e-08	2.67012137620506e-08	-2.609792041690875e-07	-2.85066384845986e-08
0.51	0.1593898889545469	0.1426467228278684	0.8820570357783992	0.1447198164870444	-0.3591288050212864	-0.1647664879665243	-0.367752103656476	0.519215765029681	0.5192157650296394	-0.06823749687354425	-0.1745280998587589	0.3115211735838656	0.1711063352066231	0.2183963782409841	0.08941027454816398	-0.08774598180011102	0.0674322302004019	-0.05331479965084228	0.1939318822418767	-0.3387607506294859	0.749955290446134	0.7499552904461128	0.07896075457095907	-7.01930535102432e-06	0.5199651913971092	0.1540177312768718	0.04539917606582366	0.01111865860514806	0.003419690399355741	-0.1977954553299963	-0.03041201639470493	-0.001008947590376792	0.02545431335887519	-36.67735285678708	5.569175033249741	0.3056859066677132	7.144323365741332	-462.302881904828	-72.40737169748515	-21.6835755329355	-0.4755734701621203	-0.1326213710613511	-0.02558337500161951	0.08650825553909977	0.02914551062567438	-0.3553449767283005	0.6103639766213818	-1.00679037526061	-1.006790375260661	-0.1908272522705989	-0.007126939860591297	-0.7108640591851341	-0.1158493449164964	1.423791633656215e-08	-3.090031366928894e-07	1.093735366648905e-07	-3.72931773892526e-08	2.785819971044107e-08	-2.551630543001375e-07	-2.765941039482653e-08
0.52	0.1615497954568017	0.1435341113399826	0.8811785412244897	0.1453982362028593	-0.359660323071094	-0.162844941629984	-0.3711088114160854	0.5266637744881086	0.526663774488052	-0.0674574139128624	-0.1745282084758825	0.3166845539205655	0.1726405677637721	0.2135484003725068	0.08805932242896687	-0.08793099160820418	0.0682430466023326	-0.05297918291460274	0.1903532019916737	-0.3325324971706494	0.7395371542167039	0.7395371542166824	0.07705540820522369	-1.603572519471623e-05	0.5126406418233224	0.1528048443347355	0.04526600284570018	0.0124759873192172	0.003446756251320867	-0.198677699332889	-0.03299106192253141	-0.0005943567098480867	0.02594136130016855	-37.52384497002367	5.557362413641876	0.2846906136133054	7.463898012747309	-463.0101574433776	-72.26703927207625	-21.46575190972862	-0.4922916125231842	-0.1375960960765643	-0.01092831237216136	0.07282460066675749	0.03947898581934461	-0.3556109997517256	0.6332568478886106	-1.079037258333748	-1.079037258333748	-0.1897444651718371	0.01192660884669954	-0.7545483043914727	-0.1250585276985886	1.382229188621823e-08	-2.965074932752914e-07	1.076415842698876e-07	-3.604770568019158e-08	2.904726172330959e-08	-2.479905537385887e-07	-2.673456530465184e-08
0.53	0.1636600858761203	0.1444077528676038	0.8802988594144225	0.1460845758335205	-0.360188179846576	-0.1609598497272798	-0.3744017806957615	0.5340043667383164	0.5340043667383001	-0.06669638189421821	-0.174528391532522	0.321772607425459	0.1741619700835466	0.2084721749836127	0.08666165735098653	-0.08798241681779841	0.06901736464125327	-0.05258104150865694	0.1866419868944555	-0.3260157133355911	0.7284727268825402	0.7284727268825194	0.0751530766766583	-2.003191044717334e-05	0.5049010595817435	0.1514525099607886	0.04517879644190688	0.01374546849956076	0.003462899819795497	-0.1996166707962642	-0.03539657439559458	-0.0001848556774205565	0.02638944047444478	-38.3120564320214	5.541718354573927	0.2595514585014519	7.738133680926673	-463.6709887202596	-72.14401288633779	-21.24530321984647	-0.520913635290444	-0.1419576540061828	0.001199347223422386	0.07860978357695647	0.04166224087514193	-0.3823781796243608	0.6677359656621976	-1.136425562534614	-1.136425562534512	-0.1901998812660415	-0.006470860888514773	-0.7940215683406796	-0.1437549317418585	1.331681022037957e-08	-2.857273795351325e-07	1.069959347081216e-07	-3.486201644469726e-08	2.956234098334124e-08	-2.430291498909287e-07	-2.595442836971509e-08
